<svg width="70" height="32" viewBox="0 0 70 32" fill="none" xmlns="http://www.w3.org/2000/svg">
<path d="M17.8333 7.66613V31.9997H13.5332V22.3652C12.3366 23.9015 10.5687 24.7969 8.13685 24.7969C3.66696 24.7969 0 20.9601 0 15.9961C0 11.0321 3.66696 7.19525 8.13685 7.19525C10.5687 7.19525 12.3366 8.09848 13.5332 9.62708V7.65843H17.8333V7.66613ZM13.5332 15.9961C13.5332 13.1938 11.5646 11.2946 8.93201 11.2946C6.29952 11.2946 4.30005 13.1938 4.30005 15.9961C4.30005 18.7985 6.26863 20.6976 8.93201 20.6976C11.5955 20.6976 13.5332 18.7985 13.5332 15.9961Z" fill="#F2F2F2"/>
<path d="M37.9058 7.66569V24.3333H33.6062V22.4651C32.6023 23.9627 30.873 24.7965 28.6419 24.7965C25.1062 24.7965 22.3423 22.3261 22.3423 17.8948V7.65799H26.6425V17.3543C26.6425 19.624 28.0089 20.7898 29.9389 20.7898C32.0388 20.7898 33.6062 19.5546 33.6062 16.6596V7.65799H37.9058V7.66569Z" fill="#F2F2F2"/>
<path d="M41.9052 3.0339C41.9052 1.59798 43.1021 0.370483 44.5382 0.370483C45.9736 0.370483 47.2011 1.60569 47.2011 3.0339C47.2011 4.46211 46.0048 5.66646 44.5382 5.66646C43.0709 5.66646 41.9052 4.46983 41.9052 3.0339ZM42.4073 7.66591H46.7069V24.3335H42.4073V7.66591Z" fill="#F2F2F2"/>
<path d="M51.2054 0H55.5057V24.3336H51.2054V0Z" fill="#F2F2F2"/>
<path d="M66.0845 11.8037V18.7364C66.0845 20.5352 67.3818 20.566 69.852 20.4348V24.3334C63.8148 24.9973 61.785 23.2372 61.785 18.7364V11.8037H58.8823V7.67354H61.785V4.30764L66.0845 3.01068V7.67354H69.852V11.8037H66.0845Z" fill="#F2F2F2"/>
<path d="M67.6042 27.4992H24.5804C23.3396 27.4992 22.3338 28.505 22.3338 29.7458V29.7534C22.3338 30.9941 23.3396 32 24.5804 32H67.6042C68.8448 32 69.8507 30.9941 69.8507 29.7534V29.7458C69.8507 28.505 68.8448 27.4992 67.6042 27.4992Z" fill="#00E467"/>
</svg>
