<svg width="12" height="13" viewBox="0 0 12 13" fill="none" xmlns="http://www.w3.org/2000/svg">
<path d="M6.01766 11.6319C4.42313 11.6319 2.82861 11.4095 1.31621 10.9647C0.741356 10.7904 0.303375 10.4358 0.111758 9.97297C-0.086702 9.51017 -0.0182675 8.99928 0.296531 8.54249L1.08353 7.39449C1.24777 7.15407 1.39833 6.67324 1.39833 6.39075V4.65373C1.39833 2.41784 3.47189 0.59668 6.01766 0.59668C8.56343 0.59668 10.637 2.41784 10.637 4.65373V6.39075C10.637 6.66723 10.7875 7.15407 10.9518 7.4005L11.7319 8.54249C12.0262 8.97524 12.081 9.49815 11.8825 9.97297C11.7856 10.2053 11.6299 10.4152 11.4272 10.587C11.2245 10.7588 10.9801 10.8879 10.7123 10.9647C9.20671 11.4095 7.61218 11.6319 6.01766 11.6319ZM6.01766 1.49825C4.0399 1.49825 2.42485 2.9107 2.42485 4.65373V6.39075C2.42485 6.82951 2.21954 7.47864 1.96633 7.8573L1.17934 9.00529C1.02878 9.22768 0.98772 9.46208 1.07669 9.66043C1.15881 9.86478 1.36411 10.0211 1.64469 10.1052C4.48364 10.9466 7.55853 10.9466 10.3975 10.1052C10.6438 10.0331 10.8355 9.87079 10.9244 9.65442C11.0134 9.43804 10.9929 9.20364 10.856 9.00529L10.069 7.8573C9.80893 7.46662 9.61047 6.8235 9.61047 6.38474V4.65373C9.61047 2.9107 8.00226 1.49825 6.01766 1.49825Z" fill="white"/>
<path d="M7.29084 1.65889C7.24293 1.65889 7.19503 1.65288 7.14713 1.64086C6.94867 1.59278 6.75705 1.55672 6.57228 1.53267C5.99058 1.46656 5.42942 1.50262 4.90247 1.64086C4.71086 1.69496 4.50555 1.64086 4.37553 1.51464C4.31074 1.45244 4.26735 1.37539 4.25039 1.29241C4.23344 1.20943 4.2436 1.12394 4.27972 1.04583C4.41597 0.736914 4.65572 0.471569 4.96729 0.284845C5.27887 0.0981212 5.6476 -0.00119677 6.0248 1.08838e-05C6.80495 1.08838e-05 7.4893 0.408721 7.76988 1.04583C7.83831 1.20811 7.8041 1.38842 7.67407 1.51464C7.57142 1.61081 7.42771 1.65889 7.29084 1.65889ZM6.01796 13C5.34045 13 4.68348 12.7596 4.20444 12.3389C3.7254 11.9181 3.45166 11.3411 3.45166 10.7461H4.47818C4.47818 11.1007 4.64242 11.4493 4.92985 11.7017C5.21727 11.9542 5.61419 12.0984 6.01796 12.0984C6.86654 12.0984 7.55773 11.4914 7.55773 10.7461H8.58425C8.58425 11.9902 7.43455 13 6.01796 13Z" fill="white"/>
</svg>
