<svg width="12" height="12" viewBox="0 0 12 12" fill="none" xmlns="http://www.w3.org/2000/svg">
<path d="M7.67125 12H4.3238C1.29435 12 0 10.7051 0 7.67442V4.32558C0 1.29488 1.29435 0 4.3238 0H7.67125C10.7007 0 11.9951 1.29488 11.9951 4.32558V7.67442C11.9951 10.7051 10.7007 12 7.67125 12ZM4.3238 0.837209C1.75184 0.837209 0.836864 1.75256 0.836864 4.32558V7.67442C0.836864 10.2474 1.75184 11.1628 4.3238 11.1628H7.67125C10.2432 11.1628 11.1582 10.2474 11.1582 7.67442V4.32558C11.1582 1.75256 10.2432 0.837209 7.67125 0.837209H4.3238Z" fill="white"/>
<path d="M4.32398 5.30219C3.47596 5.30219 2.78973 4.61568 2.78973 3.76731C2.78973 2.91893 3.47596 2.23242 4.32398 2.23242C5.172 2.23242 5.85823 2.91893 5.85823 3.76731C5.85823 4.61568 5.172 5.30219 4.32398 5.30219ZM4.32398 3.06963C4.13902 3.06963 3.96164 3.14314 3.83085 3.27398C3.70007 3.40481 3.62659 3.58227 3.62659 3.76731C3.62659 3.95234 3.70007 4.1298 3.83085 4.26064C3.96164 4.39148 4.13902 4.46498 4.32398 4.46498C4.50894 4.46498 4.68632 4.39148 4.81711 4.26064C4.94789 4.1298 5.02137 3.95234 5.02137 3.76731C5.02137 3.58227 4.94789 3.40481 4.81711 3.27398C4.68632 3.14314 4.50894 3.06963 4.32398 3.06963ZM0.791855 10.297C0.702188 10.2971 0.614872 10.2683 0.542909 10.2148C0.470945 10.1613 0.418181 10.0859 0.392473 9.99998C0.366764 9.91405 0.369487 9.8221 0.400234 9.73783C0.430981 9.65357 0.488109 9.58149 0.563112 9.53233L3.31361 7.68489C3.91615 7.27744 4.74743 7.32768 5.29418 7.79093L5.47829 7.95279C5.75725 8.19279 6.23147 8.19279 6.50485 7.95279L8.82575 5.96024C9.41713 5.45233 10.3488 5.45233 10.9458 5.96024L11.8552 6.74163C12.0281 6.89233 12.0505 7.15465 11.8998 7.33326C11.7492 7.50628 11.487 7.52861 11.3084 7.37791L10.3991 6.59651C10.1201 6.35651 9.64588 6.35651 9.36692 6.59651L7.04602 8.58907C6.45463 9.09698 5.52293 9.09698 4.92596 8.58907L4.74185 8.42721C4.48521 8.20954 4.0612 8.18721 3.77667 8.38256L1.02618 10.23C0.953649 10.2747 0.869963 10.297 0.791855 10.297Z" fill="white"/>
</svg>
