<svg width="10" height="10" viewBox="0 0 10 10" fill="none" xmlns="http://www.w3.org/2000/svg">
<path d="M4.75114 9.479H3.16781C1.33864 9.479 0.521973 8.66234 0.521973 6.83317V5.24984C0.521973 3.42067 1.33864 2.604 3.16781 2.604H4.41781C4.58864 2.604 4.73031 2.74567 4.73031 2.9165C4.73031 3.08734 4.58864 3.229 4.41781 3.229H3.16781C1.67614 3.229 1.14697 3.75817 1.14697 5.24984V6.83317C1.14697 8.32484 1.67614 8.854 3.16781 8.854H4.75114C6.24281 8.854 6.77197 8.32484 6.77197 6.83317V5.58317C6.77197 5.41234 6.91364 5.27067 7.08447 5.27067C7.25531 5.27067 7.39697 5.41234 7.39697 5.58317V6.83317C7.39697 8.66234 6.58031 9.479 4.75114 9.479Z" fill="#7F7F7F"/>
<path d="M7.08415 5.89558H5.75081C4.57998 5.89558 4.10498 5.42058 4.10498 4.24975V2.91641C4.10498 2.79141 4.17998 2.67475 4.29665 2.62891C4.41331 2.57891 4.54665 2.60808 4.63831 2.69558L7.30498 5.36225C7.39248 5.44975 7.42165 5.58725 7.37165 5.70391C7.34835 5.76092 7.30851 5.80964 7.25727 5.8438C7.20603 5.87796 7.14573 5.896 7.08415 5.89558ZM4.72998 3.67058V4.24975C4.72998 5.07891 4.92165 5.27058 5.75081 5.27058H6.32998L4.72998 3.67058ZM6.50081 1.146H4.83415C4.66331 1.146 4.52165 1.00433 4.52165 0.833496C4.52165 0.662663 4.66331 0.520996 4.83415 0.520996H6.50081C6.67165 0.520996 6.81331 0.662663 6.81331 0.833496C6.81331 1.00433 6.67165 1.146 6.50081 1.146Z" fill="#7F7F7F"/>
<path d="M2.91748 2.396C2.74665 2.396 2.60498 2.25433 2.60498 2.0835C2.60498 1.221 3.30498 0.520996 4.16748 0.520996H5.25915C5.42998 0.520996 5.57165 0.662663 5.57165 0.833496C5.57165 1.00433 5.42998 1.146 5.25915 1.146H4.16748C3.65081 1.146 3.22998 1.56683 3.22998 2.0835C3.22998 2.25433 3.08831 2.396 2.91748 2.396ZM7.99665 7.396C7.82581 7.396 7.68415 7.25433 7.68415 7.0835C7.68415 6.91266 7.82581 6.771 7.99665 6.771C8.47165 6.771 8.85498 6.3835 8.85498 5.91266V3.3335C8.85498 3.16266 8.99665 3.021 9.16748 3.021C9.33831 3.021 9.47998 3.16266 9.47998 3.3335V5.91266C9.47998 6.72933 8.81331 7.396 7.99665 7.396Z" fill="#7F7F7F"/>
<path d="M9.16748 3.64538H7.91748C6.80915 3.64538 6.35498 3.19121 6.35498 2.08288V0.832881C6.35498 0.707881 6.42998 0.591214 6.54665 0.545381C6.66331 0.495381 6.79665 0.524548 6.88831 0.612048L9.38831 3.11205C9.47581 3.19955 9.50498 3.33705 9.45498 3.45371C9.43168 3.51072 9.39184 3.55944 9.3406 3.5936C9.28936 3.62776 9.22906 3.6458 9.16748 3.64538ZM6.97998 1.58705V2.08288C6.97998 2.84538 7.15498 3.02038 7.91748 3.02038H8.41331L6.97998 1.58705Z" fill="#7F7F7F"/>
</svg>
