<svg width="12" height="12" viewBox="0 0 12 12" fill="none" xmlns="http://www.w3.org/2000/svg">
<g clip-path="url(#clip0_0_169)">
<path d="M7.5 11.375H4.5C1.785 11.375 0.625 10.215 0.625 7.5V4.5C0.625 1.785 1.785 0.625 4.5 0.625H5.5C5.705 0.625 5.875 0.795 5.875 1C5.875 1.205 5.705 1.375 5.5 1.375H4.5C2.195 1.375 1.375 2.195 1.375 4.5V7.5C1.375 9.805 2.195 10.625 4.5 10.625H7.5C9.805 10.625 10.625 9.805 10.625 7.5V6.5C10.625 6.295 10.795 6.125 11 6.125C11.205 6.125 11.375 6.295 11.375 6.5V7.5C11.375 10.215 10.215 11.375 7.5 11.375Z" fill="white"/>
<path d="M4.24967 8.8443C3.94467 8.8443 3.66467 8.7343 3.45967 8.5343C3.21467 8.2893 3.10967 7.9343 3.16467 7.5593L3.37967 6.0543C3.41967 5.7643 3.60967 5.3893 3.81467 5.1843L7.75467 1.2443C8.74967 0.249297 9.75967 0.249297 10.7547 1.2443C11.2997 1.7893 11.5447 2.3443 11.4947 2.8993C11.4497 3.3493 11.2097 3.7893 10.7547 4.2393L6.81467 8.1793C6.60967 8.3843 6.23467 8.5743 5.94467 8.6143L4.43967 8.8293C4.37467 8.8443 4.30967 8.8443 4.24967 8.8443ZM8.28467 1.7743L4.34467 5.7143C4.24967 5.8093 4.13967 6.0293 4.11967 6.1593L3.90467 7.6643C3.88467 7.8093 3.91467 7.9293 3.98967 8.0043C4.06467 8.0793 4.18467 8.1093 4.32967 8.0893L5.83467 7.8743C5.96467 7.8543 6.18967 7.7443 6.27967 7.6493L10.2197 3.7093C10.5447 3.3843 10.7147 3.0943 10.7397 2.8243C10.7697 2.4993 10.5997 2.1543 10.2197 1.7693C9.41967 0.969297 8.86967 1.1943 8.28467 1.7743Z" fill="white"/>
<path d="M9.92452 4.91514C9.88952 4.91514 9.85452 4.91014 9.82452 4.90014C9.17471 4.71511 8.5829 4.36725 8.10515 3.8895C7.6274 3.41175 7.27954 2.81994 7.09452 2.17014C7.06823 2.07402 7.08075 1.97142 7.12938 1.88444C7.17801 1.79747 7.25886 1.73307 7.35452 1.70514C7.55452 1.65014 7.75952 1.76514 7.81452 1.96514C8.11452 3.03014 8.95951 3.87514 10.0245 4.17514C10.2245 4.23014 10.3395 4.44014 10.2845 4.64014C10.2395 4.81014 10.0895 4.91514 9.92452 4.91514Z" fill="white"/>
</g>
<defs>
<clipPath id="clip0_0_169">
<rect width="12" height="12" fill="white"/>
</clipPath>
</defs>
</svg>
