<svg width="12" height="13" viewBox="0 0 12 13" fill="none" xmlns="http://www.w3.org/2000/svg">
<path d="M2.02461 11.0307C1.64925 11.0307 1.29851 10.9027 1.04622 10.6649C0.726249 10.3662 0.572416 9.91504 0.627796 9.42733L0.85547 7.4521C0.898543 7.08021 1.12622 6.58641 1.39081 6.31817L6.44271 1.0204C7.70414 -0.302516 9.02096 -0.339094 10.3562 0.910667C11.6915 2.16043 11.7284 3.46505 10.467 4.78797L5.4151 10.0857C5.15666 10.3601 4.6767 10.6161 4.30134 10.6771L2.31997 11.0124C2.21536 11.0185 2.12306 11.0307 2.02461 11.0307ZM8.41793 0.90457C7.94412 0.90457 7.53185 1.1972 7.11342 1.63614L2.06153 6.94C1.93846 7.06802 1.79693 7.37284 1.77232 7.54964L1.54464 9.52487C1.52003 9.72605 1.56926 9.89065 1.68002 9.99429C1.79078 10.0979 1.95692 10.1345 2.15998 10.104L4.14136 9.76872C4.3198 9.73824 4.61516 9.57974 4.73823 9.45171L9.79013 4.15395C10.5531 3.34922 10.83 2.60546 9.71629 1.56908C9.22402 1.09965 8.79944 0.90457 8.41793 0.90457Z" fill="white"/>
<path d="M9.2854 5.80587H9.24232C8.30978 5.71525 7.43417 5.3198 6.75347 4.68183C6.07277 4.04385 5.62568 3.19962 5.48263 2.28215C5.44571 2.0322 5.618 1.80054 5.87029 1.75786C6.12258 1.72128 6.35641 1.89198 6.39948 2.14194C6.51214 2.85926 6.86218 3.51917 7.39459 4.01796C7.92699 4.51675 8.61158 4.82613 9.34078 4.8975C9.59307 4.92189 9.77767 5.14746 9.75305 5.39741C9.72229 5.62907 9.51923 5.80587 9.2854 5.80587ZM11.5375 13.0002H0.461501C0.209214 13.0002 0 12.7929 0 12.543C0 12.293 0.209214 12.0858 0.461501 12.0858H11.5375C11.7898 12.0858 11.999 12.293 11.999 12.543C11.999 12.7929 11.7898 13.0002 11.5375 13.0002Z" fill="white"/>
</svg>
