<svg width="12" height="8" viewBox="0 0 12 8" fill="none" xmlns="http://www.w3.org/2000/svg">
<path d="M8.5113 8H7.66843C7.43958 8 7.24979 7.7824 7.24979 7.52C7.24979 7.2576 7.43958 7.04 7.66843 7.04H8.5113C9.97376 7.04 11.1627 5.6768 11.1627 4C11.1627 2.3232 9.97376 0.96 8.5113 0.96H7.67402C7.56299 0.96 7.4565 0.909429 7.37799 0.819411C7.29948 0.729394 7.25537 0.607304 7.25537 0.48C7.25537 0.352696 7.29948 0.230606 7.37799 0.140589C7.4565 0.0505712 7.56299 0 7.67402 0H8.5113C10.4371 0 12 1.792 12 4C12 6.208 10.4371 8 8.5113 8ZM4.32598 8H3.4887C1.56294 8 0 6.208 0 4C0 1.792 1.56294 0 3.4887 0H4.32598C4.55484 0 4.74463 0.2176 4.74463 0.48C4.74463 0.7424 4.55484 0.96 4.32598 0.96H3.4887C2.02624 0.96 0.837287 2.3232 0.837287 4C0.837287 5.6768 2.02624 7.04 3.4887 7.04H4.32598C4.55484 7.04 4.74463 7.2576 4.74463 7.52C4.74463 7.7824 4.55484 8 4.32598 8Z" fill="white"/>
<path d="M8.2333 4.47822H3.76776C3.53891 4.47822 3.34912 4.26062 3.34912 3.99822C3.34912 3.73582 3.53891 3.51822 3.76776 3.51822H8.2333C8.46215 3.51822 8.65194 3.73582 8.65194 3.99822C8.65194 4.26062 8.46215 4.47822 8.2333 4.47822Z" fill="white"/>
</svg>
