<svg width="17" height="17" viewBox="0 0 17 17" fill="none" xmlns="http://www.w3.org/2000/svg">
<g clip-path="url(#clip0_0_840)">
<path d="M6.37467 7.08333C6.7504 7.08333 7.11073 6.93408 7.37641 6.6684C7.64209 6.40272 7.79134 6.04239 7.79134 5.66667C7.79134 5.29094 7.64209 4.93061 7.37641 4.66493C7.11073 4.39926 6.7504 4.25 6.37467 4.25C5.99895 4.25 5.63862 4.39926 5.37294 4.66493C5.10726 4.93061 4.95801 5.29094 4.95801 5.66667C4.95801 6.04239 5.10726 6.40272 5.37294 6.6684C5.63862 6.93408 5.99895 7.08333 6.37467 7.08333Z" stroke="#8B98AC" stroke-width="1.5" stroke-linecap="round" stroke-linejoin="round"/>
<path d="M9.20866 1.41699H6.37533C2.83366 1.41699 1.41699 2.83366 1.41699 6.37533V10.6253C1.41699 14.167 2.83366 15.5837 6.37533 15.5837H10.6253C14.167 15.5837 15.5837 14.167 15.5837 10.6253V7.08366" stroke="#8B98AC" stroke-width="1.5" stroke-linecap="round" stroke-linejoin="round"/>
<path d="M12.7504 5.66699V1.41699M12.7504 1.41699L14.167 2.83366M12.7504 1.41699L11.3337 2.83366M1.8916 13.4232L5.38368 11.0787C5.94327 10.7032 6.75077 10.7457 7.25368 11.1778L7.48743 11.3832C8.03993 11.8578 8.93243 11.8578 9.48493 11.3832L12.4316 8.85449C12.9841 8.37991 13.8766 8.37991 14.4291 8.85449L15.5837 9.84616" stroke="#8B98AC" stroke-width="1.5" stroke-linecap="round" stroke-linejoin="round"/>
</g>
<defs>
<clipPath id="clip0_0_840">
<rect width="17" height="17" fill="white"/>
</clipPath>
</defs>
</svg>
