<svg width="14" height="14" viewBox="0 0 14 14" fill="none" xmlns="http://www.w3.org/2000/svg">
<g clip-path="url(#clip0_48_593)">
<path d="M7.00033 13.2707C3.54116 13.2707 0.729492 10.459 0.729492 6.99984C0.729492 3.54067 3.54116 0.729004 7.00033 0.729004C10.4595 0.729004 13.2712 3.54067 13.2712 6.99984C13.2712 10.459 10.4595 13.2707 7.00033 13.2707ZM7.00033 1.604C4.02533 1.604 1.60449 4.02484 1.60449 6.99984C1.60449 9.97484 4.02533 12.3957 7.00033 12.3957C9.97533 12.3957 12.3962 9.97484 12.3962 6.99984C12.3962 4.02484 9.97533 1.604 7.00033 1.604Z" fill="#567AF3"/>
<path d="M7.00033 8.02067C6.76116 8.02067 6.56283 7.82234 6.56283 7.58317V4.6665C6.56283 4.42734 6.76116 4.229 7.00033 4.229C7.23949 4.229 7.43783 4.42734 7.43783 4.6665V7.58317C7.43783 7.82234 7.23949 8.02067 7.00033 8.02067ZM7.00033 9.91592C6.92449 9.91592 6.84866 9.89842 6.77866 9.86925C6.70866 9.84009 6.64449 9.79925 6.58616 9.74675C6.53366 9.68842 6.49283 9.63009 6.46366 9.55425C6.4337 9.48415 6.41784 9.40882 6.41699 9.33259C6.41699 9.25675 6.43449 9.18092 6.46366 9.11092C6.49283 9.04092 6.53366 8.97675 6.58616 8.91842C6.64449 8.86592 6.70866 8.82509 6.77866 8.79592C6.92068 8.73758 7.07997 8.73758 7.22199 8.79592C7.29199 8.82509 7.35616 8.86592 7.41449 8.91842C7.46699 8.97675 7.50783 9.04092 7.53699 9.11092C7.56616 9.18092 7.58366 9.25675 7.58366 9.33259C7.58366 9.40842 7.56616 9.48425 7.53699 9.55425C7.50783 9.63009 7.46699 9.68842 7.41449 9.74675C7.35616 9.79925 7.29199 9.84009 7.22199 9.86925C7.15199 9.89842 7.07616 9.91592 7.00033 9.91592Z" fill="#567AF3"/>
</g>
<defs>
<clipPath id="clip0_48_593">
<rect width="14" height="14" fill="white"/>
</clipPath>
</defs>
</svg>
