<svg width="134" height="45" viewBox="0 0 134 45" fill="none" xmlns="http://www.w3.org/2000/svg">
<g clip-path="url(#clip0_34_223)">
<path d="M69.6152 9.49331V39.6272H64.3646V27.696C62.9035 29.5985 60.7448 30.7075 57.7754 30.7075C52.3174 30.7075 47.8398 25.956 47.8398 19.8088C47.8398 13.6616 52.3174 8.91016 57.7754 8.91016C60.7448 8.91016 62.9035 10.0287 64.3646 11.9217V9.48377H69.6152V9.49331ZM64.3646 19.8088C64.3646 16.3384 61.9608 13.9867 58.7464 13.9867C55.5319 13.9867 53.0904 16.3384 53.0904 19.8088C53.0904 23.2792 55.4942 25.6309 58.7464 25.6309C61.9985 25.6309 64.3646 23.2792 64.3646 19.8088Z" fill="#F2F2F2"/>
<path d="M94.1238 9.49337V30.134H88.8738V27.8204C87.6481 29.6751 85.5364 30.7075 82.8122 30.7075C78.4948 30.7075 75.1201 27.6483 75.1201 22.1607V9.48383H80.3707V21.4914C80.3707 24.3021 82.0392 25.7457 84.3958 25.7457C86.9599 25.7457 88.8738 24.2162 88.8738 20.631V9.48383H94.1238V9.49337Z" fill="#F2F2F2"/>
<path d="M99.0078 3.75709C99.0078 1.97889 100.469 0.458801 102.222 0.458801C103.976 0.458801 105.474 1.98844 105.474 3.75709C105.474 5.52573 104.013 7.01716 102.222 7.01716C100.431 7.01716 99.0078 5.53529 99.0078 3.75709ZM99.6201 9.49321H104.871V30.1338H99.6201V9.49321Z" fill="#F2F2F2"/>
<path d="M110.366 0H115.617V30.1339H110.366V0Z" fill="#F2F2F2"/>
<path d="M128.532 14.6176V23.2027C128.532 25.4302 130.115 25.4684 133.131 25.306V30.1339C125.76 30.956 123.281 28.7763 123.281 23.2027V14.6176H119.736V9.5029H123.281V5.33463L128.532 3.72852V9.5029H133.131V14.6176H128.532Z" fill="#F2F2F2"/>
<path d="M130.388 34.0535H77.8545C76.3395 34.0535 75.1113 35.299 75.1113 36.8355V36.845C75.1113 38.3815 76.3395 39.6271 77.8545 39.6271H130.388C131.904 39.6271 133.131 38.3815 133.131 36.845V36.8355C133.131 35.299 131.904 34.0535 130.388 34.0535Z" fill="#00E467"/>
<path d="M22.5389 44.5218C22.2656 44.5218 22.0111 44.4165 21.8131 44.2158L16.0441 38.3649H4.33622C2.19639 38.3649 0.461914 36.6059 0.461914 34.4357V18.4893C0.461914 17.9157 0.923816 17.4471 1.4894 17.4471H17.2224C20.7196 17.4471 23.5664 20.3343 23.5664 23.8812V43.4796C23.5664 43.776 23.4533 44.0438 23.2459 44.2349C23.0574 44.4166 22.7934 44.5218 22.5389 44.5218Z" fill="#121214"/>
<path d="M17.2224 17.9061C20.4745 17.9061 23.1139 20.583 23.1139 23.8812V43.4797C23.1139 43.8239 22.8311 44.0629 22.5389 44.0629C22.3975 44.0629 22.2562 44.0056 22.143 43.8908L16.242 37.9062H4.34564C2.46032 37.9062 0.923784 36.3574 0.923784 34.4358V18.4893C0.923784 18.1739 1.17831 17.9157 1.48939 17.9157H17.2224V17.9061ZM17.2224 16.9884H1.48939C0.669273 16.9884 0 17.6672 0 18.4989V34.4453C0 36.8736 1.94185 38.843 4.3362 38.843H15.8555L21.4925 44.5601C21.7754 44.8468 22.143 44.9998 22.5389 44.9998C23.359 44.9998 24.0283 44.321 24.0283 43.4893V23.8909C24.0283 20.0858 20.9741 16.9884 17.2224 16.9884Z" fill="#00E467"/>
<path d="M28.9491 38.0115C28.6758 38.0115 28.4212 37.9063 28.2233 37.7055L22.4542 31.8547H10.7464C8.60657 31.8547 6.87207 30.0956 6.87207 27.9255V11.979C6.87207 11.4053 7.33397 10.9369 7.89957 10.9369H23.6325C27.1298 10.9369 29.9766 13.8241 29.9766 17.3709V36.9694C29.9766 37.2658 29.8635 37.5334 29.6561 37.7247C29.4675 37.9063 29.2036 38.0115 28.9491 38.0115Z" fill="#121214"/>
<path d="M23.6422 11.4053C26.8944 11.4053 29.5339 14.0821 29.5339 17.3805V36.979C29.5339 37.3231 29.251 37.5621 28.9588 37.5621C28.8175 37.5621 28.676 37.5047 28.5629 37.39L22.6619 31.4053H10.7655C8.88021 31.4053 7.34371 29.8566 7.34371 27.9349V11.9885C7.34371 11.673 7.59823 11.4149 7.9093 11.4149H23.6422V11.4053ZM23.6422 10.4875H7.9093C7.08919 10.4875 6.41992 11.1663 6.41992 11.998V27.9445C6.41992 30.3728 8.36177 32.3422 10.7561 32.3422H22.2754L27.9125 38.0592C28.1953 38.3461 28.5629 38.4991 28.9588 38.4991C29.779 38.4991 30.4483 37.8203 30.4483 36.9885V17.39C30.4483 13.5851 27.394 10.4875 23.6422 10.4875Z" fill="#00E467"/>
<path d="M35.3592 31.5201C35.0859 31.5201 34.8314 31.4149 34.6334 31.2141L28.8643 25.3633H17.1565C15.0167 25.3633 13.2822 23.6041 13.2822 21.4339V5.48753C13.2822 4.91392 13.7441 4.4455 14.3097 4.4455H30.0427C33.5399 4.4455 36.3868 7.33267 36.3868 10.8796V30.4779C36.3868 30.7743 36.2736 31.042 36.0662 31.2332C35.8777 31.4149 35.6137 31.5201 35.3592 31.5201Z" fill="#121214"/>
<path d="M30.0515 4.90431C33.3036 4.90431 35.943 7.58118 35.943 10.8795V30.4779C35.943 30.8221 35.6603 31.0611 35.3681 31.0611C35.2266 31.0611 35.0853 31.0038 34.9721 30.889L29.0711 24.9043H17.1748C15.2895 24.9043 13.7529 23.3556 13.7529 21.434V5.48748C13.7529 5.17199 14.0074 4.91389 14.3185 4.91389H30.0515V4.90431ZM30.0515 3.98651H14.3185C13.4984 3.98651 12.8291 4.66531 12.8291 5.49704V21.4435C12.8291 23.8718 14.771 25.8413 17.1654 25.8413H28.6846L34.3217 31.5582C34.6045 31.8451 34.9721 31.998 35.3681 31.998C36.1881 31.998 36.8574 31.3192 36.8574 30.4875V10.889C36.8574 7.08406 33.8032 3.98651 30.0515 3.98651Z" fill="#00E467"/>
</g>
<defs>
<clipPath id="clip0_34_223">
<rect width="134" height="45" fill="white"/>
</clipPath>
</defs>
</svg>
