<svg width="14" height="19" viewBox="0 0 14 19" fill="none" xmlns="http://www.w3.org/2000/svg">
<path d="M1.75 19C1.26875 19 0.856626 18.8227 0.513626 18.468C0.170626 18.1133 -0.000581848 17.6875 1.48557e-06 17.1905V8.14286C1.48557e-06 7.64524 0.171501 7.2191 0.514501 6.86443C0.857501 6.50976 1.26933 6.33273 1.75 6.33333H2.625V4.52381C2.625 3.27222 3.05171 2.20521 3.90513 1.32276C4.75854 0.440318 5.79017 -0.000602557 7 6.18007e-07C8.21042 6.18007e-07 9.24233 0.441223 10.0957 1.32367C10.9492 2.20611 11.3756 3.27283 11.375 4.52381V6.33333H12.25C12.7312 6.33333 13.1434 6.51067 13.4864 6.86533C13.8294 7.22 14.0006 7.64584 14 8.14286V17.1905C14 17.6881 13.8285 18.1142 13.4855 18.4689C13.1425 18.8236 12.7307 19.0006 12.25 19H1.75ZM1.75 17.1905H12.25V8.14286H1.75V17.1905ZM7 14.4762C7.48125 14.4762 7.89337 14.2989 8.23637 13.9442C8.57938 13.5895 8.75058 13.1637 8.75 12.6667C8.75 12.169 8.5785 11.7429 8.2355 11.3882C7.8925 11.0336 7.48067 10.8565 7 10.8571C6.51875 10.8571 6.10663 11.0345 5.76363 11.3891C5.42063 11.7438 5.24942 12.1697 5.25 12.6667C5.25 13.1643 5.4215 13.5904 5.7645 13.9451C6.1075 14.2998 6.51933 14.4768 7 14.4762ZM4.375 6.33333H9.625V4.52381C9.625 3.76984 9.36979 3.12897 8.85938 2.60119C8.34896 2.07341 7.72917 1.80952 7 1.80952C6.27083 1.80952 5.65104 2.07341 5.14063 2.60119C4.63021 3.12897 4.375 3.76984 4.375 4.52381V6.33333Z" fill="#768192"/>
</svg>
