<svg width="12" height="12" viewBox="0 0 12 12" fill="none" xmlns="http://www.w3.org/2000/svg">
<path d="M6 12C2.69023 12 0 9.30977 0 6C0 2.69023 2.69023 0 6 0C9.30977 0 12 2.69023 12 6C12 9.30977 9.30977 12 6 12ZM6 0.837209C3.15349 0.837209 0.837209 3.15349 0.837209 6C0.837209 8.84651 3.15349 11.1628 6 11.1628C8.84651 11.1628 11.1628 8.84651 11.1628 6C11.1628 3.15349 8.84651 0.837209 6 0.837209Z" fill="#F24E1E"/>
<path d="M6.00003 6.97675C5.7712 6.97675 5.58143 6.78699 5.58143 6.55815V3.76745C5.58143 3.53861 5.7712 3.34885 6.00003 3.34885C6.22887 3.34885 6.41864 3.53861 6.41864 3.76745V6.55815C6.41864 6.78699 6.22887 6.97675 6.00003 6.97675ZM6.00003 8.79015C5.92748 8.79015 5.85492 8.77341 5.78794 8.7455C5.72096 8.71759 5.65957 8.67852 5.60375 8.62829C5.55352 8.57247 5.51445 8.51666 5.48655 8.4441C5.45788 8.37702 5.4427 8.30495 5.44189 8.23201C5.44189 8.15945 5.45864 8.08689 5.48655 8.01992C5.51445 7.95294 5.55352 7.89154 5.60375 7.83573C5.65957 7.7855 5.72096 7.74643 5.78794 7.71852C5.92383 7.6627 6.07624 7.6627 6.21213 7.71852C6.2791 7.74643 6.3405 7.7855 6.39631 7.83573C6.44655 7.89154 6.48562 7.95294 6.51352 8.01992C6.54143 8.08689 6.55817 8.15945 6.55817 8.23201C6.55817 8.30457 6.54143 8.37713 6.51352 8.4441C6.48562 8.51666 6.44655 8.57247 6.39631 8.62829C6.3405 8.67852 6.2791 8.71759 6.21213 8.7455C6.14515 8.77341 6.07259 8.79015 6.00003 8.79015Z" fill="#F24E1E"/>
</svg>
