<svg width="60" height="60" viewBox="0 0 60 60" fill="none" xmlns="http://www.w3.org/2000/svg">
<circle cx="30" cy="30" r="30" fill="#00E467"/>
<path fill-rule="evenodd" clip-rule="evenodd" d="M18 24.1333C18 23.5499 18.2529 22.9903 18.7029 22.5777C19.153 22.1651 19.7635 21.9333 20.4 21.9333H39.6C40.2365 21.9333 40.847 22.1651 41.2971 22.5777C41.7471 22.9903 42 23.5499 42 24.1333V35.8667C42 36.4502 41.7471 37.0097 41.2971 37.4223C40.847 37.8349 40.2365 38.0667 39.6 38.0667H20.4C19.7635 38.0667 19.153 37.8349 18.7029 37.4223C18.2529 37.0097 18 36.4502 18 35.8667V24.1333ZM22.8 27.8C22.8 27.022 23.1371 26.2759 23.7373 25.7258C24.3374 25.1757 25.1513 24.8667 26 24.8667C26.8487 24.8667 27.6626 25.1757 28.2627 25.7258C28.8629 26.2759 29.2 27.022 29.2 27.8C29.2 28.578 28.8629 29.3241 28.2627 29.8742C27.6626 30.4243 26.8487 30.7333 26 30.7333C25.1513 30.7333 24.3374 30.4243 23.7373 29.8742C23.1371 29.3241 22.8 28.578 22.8 27.8ZM37.2 27.8H32.4V26.3333H37.2V27.8ZM37.2 32.2H32.4V30.7333H37.2V32.2ZM26 32.2C25.1303 32.2 24.2777 32.422 23.5379 32.8412C22.7981 33.2603 22.2002 33.86 21.8112 34.5731L21.2832 35.5381C21.222 35.6501 21.1931 35.7745 21.1992 35.8995C21.2053 36.0246 21.2463 36.1461 21.3181 36.2526C21.39 36.359 21.4904 36.4468 21.6097 36.5076C21.7291 36.5685 21.8634 36.6003 22 36.6H30C30.1364 36.6 30.2706 36.568 30.3897 36.5071C30.5089 36.4462 30.609 36.3583 30.6807 36.2519C30.7524 36.1455 30.7931 36.0241 30.7992 35.8992C30.8052 35.7742 30.7763 35.65 30.7152 35.5381L30.1888 34.5731C29.7998 33.86 29.202 33.2603 28.4621 32.8412C27.7223 32.422 26.8697 32.2 26 32.2Z" fill="white"/>
</svg>
